<?xml version="1.0" encoding="iso-8859-1"?>
<!-- Generator: Adobe Illustrator 19.0.0, SVG Export Plug-In . SVG Version: 6.00 Build 0)  -->
<svg version="1.1" id="Capa_1" xmlns="http://www.w3.org/2000/svg" xmlns:xlink="http://www.w3.org/1999/xlink" x="0px" y="0px"
	 viewBox="0 0 512 512" style="enable-background:new 0 0 512 512;" xml:space="preserve">
<g>
	<g>
		<path d="M359.167,0H152.32c-19.455,0-35.84,15.872-35.84,35.84v440.32c0,19.455,15.872,35.84,35.84,35.84h207.36
			c19.455,0,35.84-15.872,35.84-35.84V35.84C395.007,15.872,379.135,0,359.167,0z M255.743,28.161
			c5.631,0,10.241,4.61,10.241,10.241s-4.61,10.241-10.241,10.241c-5.631,0-10.241-4.61-10.241-10.241
			S250.112,28.161,255.743,28.161z M286.466,483.839h-61.439v-20.482h61.439V483.839z M374.531,434.689H136.448V77.311h238.083
			V434.689z"/>
	</g>
</g>
<g>
</g>
<g>
</g>
<g>
</g>
<g>
</g>
<g>
</g>
<g>
</g>
<g>
</g>
<g>
</g>
<g>
</g>
<g>
</g>
<g>
</g>
<g>
</g>
<g>
</g>
<g>
</g>
<g>
</g>
</svg>
