<?xml version="1.0" encoding="iso-8859-1"?>
<!-- Generator: Adobe Illustrator 19.0.0, SVG Export Plug-In . SVG Version: 6.00 Build 0)  -->
<svg version="1.1" id="Capa_1" xmlns="http://www.w3.org/2000/svg" xmlns:xlink="http://www.w3.org/1999/xlink" x="0px" y="0px"
	 viewBox="0 0 512.001 512.001" style="enable-background:new 0 0 512.001 512.001;" xml:space="preserve">
<g>
	<g>
		<path d="M66.043,213.796H51.088c-4.145,0-7.504,3.359-7.504,7.504s3.359,7.504,7.504,7.504h14.956
			c4.145,0,7.504-3.359,7.504-7.504S70.188,213.796,66.043,213.796z"/>
	</g>
</g>
<g>
	<g>
		<path d="M66.043,177.778H51.088c-4.145,0-7.504,3.359-7.504,7.504c0,4.145,3.359,7.504,7.504,7.504h14.956
			c4.145,0,7.504-3.359,7.504-7.504C73.547,181.136,70.188,177.778,66.043,177.778z"/>
	</g>
</g>
<g>
	<g>
		<path d="M66.043,249.814H51.088c-4.145,0-7.504,3.359-7.504,7.504c0,4.145,3.359,7.504,7.504,7.504h14.956
			c4.145,0,7.504-3.359,7.504-7.504C73.547,253.174,70.188,249.814,66.043,249.814z"/>
	</g>
</g>
<g>
	<g>
		<path d="M66.043,285.832H51.088c-4.145,0-7.504,3.36-7.504,7.504c0,4.145,3.359,7.504,7.504,7.504h14.956
			c4.145,0,7.504-3.359,7.504-7.504C73.547,289.192,70.188,285.832,66.043,285.832z"/>
	</g>
</g>
<g>
	<g>
		<path d="M66.043,321.851H51.088c-4.145,0-7.504,3.36-7.504,7.504c0,4.145,3.359,7.504,7.504,7.504h14.956
			c4.145,0,7.504-3.359,7.504-7.504C73.547,325.21,70.188,321.851,66.043,321.851z"/>
	</g>
</g>
<g>
	<g>
		<path d="M66.043,357.869H51.088c-4.145,0-7.504,3.36-7.504,7.504c0,4.145,3.359,7.504,7.504,7.504h14.956
			c4.145,0,7.504-3.359,7.504-7.504C73.547,361.229,70.188,357.869,66.043,357.869z"/>
	</g>
</g>
<g>
	<g>
		<path d="M66.043,393.887H51.088c-4.145,0-7.504,3.36-7.504,7.504c0,4.145,3.359,7.504,7.504,7.504h14.956
			c4.145,0,7.504-3.359,7.504-7.504C73.547,397.247,70.188,393.887,66.043,393.887z"/>
	</g>
</g>
<g>
	<g>
		<path d="M204.17,380.921l-13.213-13.212l13.213-13.212c2.929-2.934,2.929-7.684-0.001-10.614c-2.931-2.929-7.682-2.929-10.612,0
			l-18.518,18.518c-2.93,2.932-2.93,7.682,0,10.613l18.518,18.518c1.466,1.465,3.387,2.197,5.307,2.197s3.841-0.732,5.307-2.197
			C207.1,388.601,207.1,383.851,204.17,380.921z"/>
	</g>
</g>
<g>
	<g>
		<path d="M284.568,362.399l-18.519-18.516c-2.932-2.929-7.682-2.929-10.612,0c-2.93,2.932-2.93,7.682,0,10.612l13.213,13.212
			l-13.213,13.212c-2.93,2.932-2.93,7.682,0,10.612c1.466,1.465,3.387,2.197,5.307,2.197c1.92,0,3.841-0.732,5.307-2.197
			l18.518-18.518C287.498,370.081,287.498,365.331,284.568,362.399z"/>
	</g>
</g>
<g>
	<g>
		<path d="M241.958,333.738c-3.9-1.416-8.201,0.591-9.618,4.484l-20.799,57.143c-1.418,3.895,0.591,8.2,4.484,9.618
			c0.848,0.308,1.714,0.454,2.565,0.454c3.065,0,5.943-1.893,7.053-4.94l20.799-57.143
			C247.86,339.462,245.852,335.155,241.958,333.738z"/>
	</g>
</g>
<g>
	<g>
		<path d="M58.439,83.631c-0.09-0.469-0.24-0.949-0.42-1.4c-0.19-0.45-0.42-0.891-0.69-1.291c-0.279-0.42-0.59-0.8-0.93-1.142
			c-1.401-1.4-3.332-2.2-5.313-2.2c-1.972,0-3.912,0.8-5.304,2.2c-0.35,0.341-0.66,0.721-0.94,1.142
			c-0.271,0.399-0.5,0.84-0.681,1.291c-0.19,0.45-0.34,0.93-0.43,1.4c-0.1,0.49-0.149,0.982-0.149,1.472
			c0,1.971,0.8,3.911,2.2,5.303c1.392,1.4,3.332,2.201,5.304,2.201c0.489,0,0.979-0.051,1.471-0.15c0.479-0.09,0.95-0.24,1.4-0.43
			c0.45-0.181,0.891-0.42,1.302-0.69c0.409-0.27,0.79-0.58,1.141-0.93c1.391-1.392,2.191-3.332,2.191-5.303
			C58.589,84.613,58.538,84.122,58.439,83.631z"/>
	</g>
</g>
<g>
	<g>
		<path d="M81.831,79.799c-1.401-1.4-3.332-2.2-5.313-2.2c-1.972,0-3.902,0.8-5.304,2.2c-1.4,1.392-2.2,3.332-2.2,5.304
			c0,1.971,0.8,3.911,2.2,5.303c1.401,1.4,3.332,2.201,5.304,2.201c1.98,0,3.911-0.801,5.313-2.201
			c1.391-1.392,2.201-3.332,2.201-5.303C84.032,83.131,83.221,81.191,81.831,79.799z"/>
	</g>
</g>
<g>
	<g>
		<path d="M109.314,83.631c-0.099-0.469-0.239-0.949-0.429-1.4c-0.19-0.45-0.42-0.891-0.69-1.291c-0.27-0.42-0.579-0.8-0.93-1.142
			c-0.35-0.35-0.729-0.659-1.141-0.94c-0.41-0.271-0.84-0.5-1.291-0.69c-0.46-0.18-0.931-0.33-1.411-0.43
			c-0.961-0.19-1.961-0.19-2.932,0c-0.48,0.1-0.95,0.25-1.401,0.43c-0.46,0.19-0.89,0.42-1.301,0.69
			c-0.41,0.28-0.79,0.59-1.142,0.94c-0.34,0.341-0.659,0.721-0.93,1.142c-0.27,0.399-0.5,0.84-0.689,1.291
			c-0.19,0.45-0.33,0.93-0.431,1.4c-0.09,0.49-0.14,0.982-0.14,1.472c0,1.971,0.8,3.911,2.19,5.303c0.351,0.35,0.73,0.66,1.142,0.93
			c0.41,0.271,0.84,0.51,1.301,0.69c0.45,0.189,0.92,0.34,1.401,0.43c0.479,0.1,0.979,0.15,1.471,0.15
			c0.49,0,0.979-0.051,1.461-0.15c0.479-0.09,0.951-0.24,1.411-0.43c0.45-0.181,0.88-0.42,1.291-0.69s0.79-0.58,1.141-0.93
			c1.401-1.392,2.201-3.332,2.201-5.303C109.464,84.613,109.414,84.122,109.314,83.631z"/>
	</g>
</g>
<g>
	<g>
		<path d="M312.126,77.598H133.203c-4.145,0-7.504,3.359-7.504,7.504c0,4.145,3.359,7.504,7.504,7.504h178.923
			c4.145,0,7.504-3.359,7.504-7.504C319.629,80.958,316.27,77.598,312.126,77.598z"/>
	</g>
</g>
<g>
	<g>
		<path d="M369.195,77.598h-30.682c-4.145,0-7.504,3.359-7.504,7.504c0,4.145,3.359,7.504,7.504,7.504h30.682
			c4.145,0,7.504-3.359,7.504-7.504C376.699,80.958,373.34,77.598,369.195,77.598z"/>
	</g>
</g>
<g>
	<g>
		<path d="M430.54,232.799h-98.446c-4.145,0-7.504,3.359-7.504,7.504c0,4.145,3.359,7.504,7.504,7.504h98.446
			c4.145,0,7.504-3.359,7.504-7.504C438.043,236.157,434.685,232.799,430.54,232.799z"/>
	</g>
</g>
<g>
	<g>
		<path d="M388.569,196.78h-28.514c-4.145,0-7.504,3.359-7.504,7.504c0,4.145,3.359,7.504,7.504,7.504h28.514
			c4.145,0,7.504-3.359,7.504-7.504C396.073,200.139,392.714,196.78,388.569,196.78z"/>
	</g>
</g>
<g>
	<g>
		<path d="M463.743,196.78h-46.409c-4.145,0-7.504,3.359-7.504,7.504c0,4.145,3.359,7.504,7.504,7.504h46.409
			c4.145,0,7.504-3.359,7.504-7.504C471.247,200.14,467.887,196.78,463.743,196.78z"/>
	</g>
</g>
<g>
	<g>
		<path d="M327.789,196.78h-94.798c-4.145,0-7.504,3.359-7.504,7.504c0,4.145,3.359,7.504,7.504,7.504h94.798
			c4.145,0,7.504-3.359,7.504-7.504C335.292,200.139,331.934,196.78,327.789,196.78z"/>
	</g>
</g>
<g>
	<g>
		<path d="M304.267,232.799h-28.514c-4.145,0-7.504,3.359-7.504,7.504c0,4.145,3.359,7.504,7.504,7.504h28.514
			c4.145,0,7.504-3.359,7.504-7.504C311.77,236.157,308.412,232.799,304.267,232.799z"/>
	</g>
</g>
<g>
	<g>
		<path d="M246.581,232.799h-14.956c-4.145,0-7.504,3.359-7.504,7.504c0,4.145,3.359,7.504,7.504,7.504h14.956
			c4.145,0,7.504-3.359,7.504-7.504C254.085,236.157,250.727,232.799,246.581,232.799z"/>
	</g>
</g>
<g>
	<g>
		<path d="M194.3,232.799h-14.956c-4.145,0-7.504,3.359-7.504,7.504c0,4.145,3.359,7.504,7.504,7.504H194.3
			c4.145,0,7.504-3.359,7.504-7.504C201.804,236.158,198.445,232.799,194.3,232.799z"/>
	</g>
</g>
<g>
	<g>
		<path d="M194.3,196.78h-14.956c-4.145,0-7.504,3.359-7.504,7.504c0,4.145,3.359,7.504,7.504,7.504H194.3
			c4.145,0,7.504-3.359,7.504-7.504C201.804,200.14,198.445,196.78,194.3,196.78z"/>
	</g>
</g>
<g>
	<g>
		<path d="M471.098,238.84c-0.09-0.48-0.24-0.949-0.431-1.41c-0.179-0.45-0.419-0.88-0.689-1.291c-0.271-0.41-0.58-0.801-0.93-1.142
			c-0.341-0.35-0.73-0.66-1.142-0.939c-0.41-0.271-0.84-0.5-1.291-0.69c-0.46-0.18-0.93-0.33-1.411-0.42
			c-0.96-0.2-1.961-0.2-2.931,0c-0.479,0.09-0.951,0.24-1.401,0.42c-0.449,0.19-0.891,0.42-1.301,0.69
			c-0.41,0.279-0.79,0.59-1.141,0.939c-0.34,0.34-0.65,0.73-0.93,1.142c-0.271,0.41-0.5,0.84-0.69,1.291
			c-0.19,0.46-0.33,0.93-0.43,1.41c-0.09,0.48-0.141,0.971-0.141,1.462c0,0.489,0.051,0.981,0.141,1.471
			c0.1,0.48,0.239,0.951,0.43,1.4c0.19,0.45,0.42,0.891,0.69,1.291c0.279,0.42,0.59,0.801,0.93,1.142
			c0.35,0.35,0.729,0.66,1.141,0.94c0.41,0.271,0.851,0.5,1.301,0.69c0.45,0.18,0.921,0.33,1.401,0.42
			c0.49,0.1,0.98,0.15,1.471,0.15s0.981-0.051,1.461-0.15c0.48-0.09,0.951-0.24,1.411-0.42c0.45-0.19,0.88-0.42,1.291-0.69
			c0.41-0.279,0.8-0.59,1.142-0.94c0.35-0.34,0.659-0.721,0.93-1.142c0.27-0.399,0.51-0.84,0.689-1.291
			c0.19-0.449,0.341-0.92,0.431-1.4c0.1-0.49,0.149-0.98,0.149-1.471C471.247,239.811,471.197,239.321,471.098,238.84z"/>
	</g>
</g>
<g>
	<g>
		<path d="M492.491,309.332h-79.256v-27.012h79.256c10.757,0,19.51-8.752,19.51-19.51v-81.035c0-10.757-8.752-19.51-19.51-19.51
			h-20.937c-4.144,0-7.504,3.359-7.504,7.504c0,4.145,3.36,7.504,7.504,7.504h20.937c2.44,0,4.502,2.062,4.502,4.502v81.035
			c0,2.44-2.062,4.502-4.502,4.502c-29.822,0-339.31,0-347.282,0c-2.441,0-4.502-2.062-4.502-4.502v-81.035
			c0-2.44,2.061-4.502,4.502-4.502c12.457,0,278.382,0,291.328,0c4.145,0,7.504-3.359,7.504-7.504c0-4.145-3.359-7.504-7.504-7.504
			h-23.302c0-13.963,0-73.452,0-87.482c0-20.323-16.533-36.857-36.857-36.857C15.286,37.979,37.136,37.818,34.167,38.043
			C18.325,39.233,5.337,50.405,1.36,65.216c-1.871,6.959-1.268,7.509-1.268,102.557c0,4.145,3.359,7.504,7.504,7.504
			c4.145,0,7.504-3.359,7.504-7.504v-35.497h383.127v29.99H145.209c-10.757,0-19.51,8.752-19.51,19.51v81.035
			c0,10.758,8.752,19.51,19.51,19.51h253.019v27.012H145.209c-10.757,0-19.51,8.752-19.51,19.51v81.036
			c0,10.758,8.752,19.51,19.51,19.51h253.019v7.837c0,12.047-9.802,21.849-21.849,21.849H119.467c-4.145,0-7.504,3.36-7.504,7.504
			c0,4.145,3.359,7.504,7.504,7.504h256.911c20.323,0,36.857-16.533,36.857-36.857v-7.837h79.256c10.757,0,19.51-8.752,19.51-19.51
			v-81.036C512.001,318.085,503.248,309.332,492.491,309.332z M15.101,117.268c0.033-43.956-2.295-49.98,7.112-58.598
			c3.9-3.56,9.086-5.735,14.737-5.735h339.429c12.047,0,21.849,9.802,21.849,21.849v42.484H15.101z M496.993,409.878
			c0,2.441-2.062,4.502-4.502,4.502c-29.822,0-339.31,0-347.282,0c-2.441,0-4.502-2.061-4.502-4.502v-81.036
			c0-2.44,2.061-4.502,4.502-4.502c8.376,0,318.729,0,347.282,0c2.44,0,4.502,2.062,4.502,4.502V409.878z"/>
	</g>
</g>
<g>
	<g>
		<path d="M84.449,459.074H36.95c-12.047,0-21.849-9.802-21.849-21.849V202.79c0-4.145-3.359-7.504-7.504-7.504
			c-4.145,0-7.504,3.359-7.504,7.504v234.435c0,20.323,16.533,36.857,36.857,36.857h47.5c4.145,0,7.504-3.359,7.504-7.504
			C91.953,462.434,88.595,459.074,84.449,459.074z"/>
	</g>
</g>
<g>
</g>
<g>
</g>
<g>
</g>
<g>
</g>
<g>
</g>
<g>
</g>
<g>
</g>
<g>
</g>
<g>
</g>
<g>
</g>
<g>
</g>
<g>
</g>
<g>
</g>
<g>
</g>
<g>
</g>
</svg>
