<?xml version="1.0" encoding="utf-8"?>
<!-- Generator: Adobe Illustrator 25.2.3, SVG Export Plug-In . SVG Version: 6.00 Build 0)  -->
<svg version="1.1" id="Capa_1" xmlns="http://www.w3.org/2000/svg" xmlns:xlink="http://www.w3.org/1999/xlink" x="0px" y="0px"
	 viewBox="0 0 512 512" style="enable-background:new 0 0 512 512;" xml:space="preserve">
<path d="M423,237c0-4.4-3.6-8-8-8c-4.4,0-8,3.6-8,8v220c0,17.6-14.4,32-32,32H55c-17.6,0-32-14.4-32-32V137c0-17.6,14.4-32,32-32
	h220c4.4,0,8-3.6,8-8s-3.6-8-8-8H55c-26.5,0-48,21.5-48,48v320c0,26.5,21.5,48,48,48h320c26.5,0,48-21.5,48-48V237z"/>
<path d="M266.4,311.5c1.6-0.3,3-1.1,4.1-2.2L496.8,83.1c10.9-10.9,10.9-28.7,0-39.6l5-4.9l-5,4.9l-28.3-28.3
	C463.1,9.7,455.9,7,448.7,7c-7.2,0-14.3,2.7-19.8,8.2L202.6,241.5c-1.1,1.1-1.9,2.5-2.2,4.1l-14.1,70.7c-0.5,2.6,0.3,5.3,2.2,7.2
	c1.9,1.9,4.6,2.7,7.2,2.2L266.4,311.5z M440.2,26.5c2.3-2.3,5.3-3.5,8.5-3.5c0,0,0,0,0,0c3.2,0,6.2,1.2,8.5,3.5l28.3,28.3
	c2.3,2.3,3.5,5.3,3.5,8.5c0,3.2-1.2,6.2-3.5,8.5l-22.6,22.6l-45.3-45.3L440.2,26.5z M215.7,251.1L406.3,60.4l45.3,45.3L260.9,296.3
	l-56.6,11.3L215.7,251.1z"/>
</svg>
